<?xml version="1.0" encoding="utf-8"?>
<!-- Generator: Adobe Illustrator 25.4.1, SVG Export Plug-In . SVG Version: 6.00 Build 0)  -->
<svg version="1.0" id="Layer_1" xmlns="http://www.w3.org/2000/svg" xmlns:xlink="http://www.w3.org/1999/xlink" x="0px" y="0px"
	 viewBox="0 0 930 636.7" style="enable-background:new 0 0 930 636.7;" xml:space="preserve">
<style type="text/css">
	.st0{fill:#1D1D1B;}
	.st1{fill:#E40E2E;}
</style>
<path class="st0" d="M640.1,366c8.2,0,14.9-6.4,14.9-14.2s-6.6-14.1-14.9-14.1s-14.9,6.4-14.9,14.2S631.9,366.1,640.1,366
	 M640.1,299.1c-8.2,0-14.9-6.4-14.9-14.2s6.7-14.2,14.9-14.2S655,277,655,284.9S648.3,299,640.1,299.1"/>
<path class="st1" d="M840,386V250.7h-22.7v80.2l-8.9-21.5l-24.9-58.7h-21.7V386h23.1v-79.2l9.5,21.5l26.2,57.7H840z M721.3,353.7
	V283c0-7.9-4.7-13.2-13-13.2c-8.1,0-12.8,5.3-12.8,13.2v70.7c0,7.9,4.7,13.2,12.8,13.2C716.6,366.9,721.3,361.6,721.3,353.7z
	 M746.6,352.1c0,21.5-14.6,37-38.3,37c-23.5,0-38.3-15.4-38.3-37v-67.4c0-21.3,14.8-36.8,38.3-36.8c23.7,0,38.3,15.4,38.3,36.8
	V352.1z M611.8,386V250.7h-22.7v80.2l-8.9-21.5l-24.9-58.7h-21.7V386h23.1v-79.2l9.5,21.5l26.2,57.7L611.8,386z M493.1,353.7V283
	c0-7.9-4.7-13.2-13-13.2c-8.1,0-12.8,5.3-12.8,13.2v70.7c0,7.9,4.7,13.2,12.8,13.2C488.4,366.9,493.1,361.6,493.1,353.7z
	 M518.4,352.1c0,21.5-14.6,37-38.3,37c-23.5,0-38.3-15.4-38.3-37v-67.4c0-21.3,14.8-36.8,38.3-36.8c23.7,0,38.3,15.4,38.3,36.8
	V352.1z M430.3,273.1v-22.4h-75V273h24.9v113h25.3V273L430.3,273.1z M343.7,273.1v-22.4h-75V273h24.9v113H319V273L343.7,273.1z
	 M231.8,353.7V283c0-7.9-4.7-13.2-13-13.2c-8.1,0-12.8,5.3-12.8,13.2v70.7c0,7.9,4.7,13.2,12.8,13.2
	C227.1,366.9,231.8,361.6,231.8,353.7z M257.2,352.1c0,21.5-14.6,37-38.3,37c-23.5,0-38.3-15.4-38.3-37v-67.4
	c0-21.3,14.8-36.8,38.3-36.8c23.7,0,38.3,15.4,38.3,36.8V352.1z M165.4,353.7c0,20.3-12.6,35.4-36.5,35.4
	c-24.1,0-38.9-16.2-38.9-37.2v-67c0-20.9,14.8-37.1,38.9-37.1c23.9,0,36.5,15,36.5,35.4v16.5h-22.5v-16.3c0-7.9-4.4-13.4-13.6-13.4
	c-9.1,0-13.8,5.5-13.8,13v71.1c0,7.5,4.7,13,13.8,13c9.1,0,13.6-5.5,13.6-13.4v-16.3h22.5V353.7z"/>
</svg>
