<?xml version="1.0" encoding="utf-8"?>
<!-- Generator: Adobe Illustrator 29.5.1, SVG Export Plug-In . SVG Version: 9.03 Build 0)  -->
<svg version="1.0" id="katman_1" xmlns:svg="http://www.w3.org/2000/svg"
	 xmlns="http://www.w3.org/2000/svg" xmlns:xlink="http://www.w3.org/1999/xlink" x="0px" y="0px" viewBox="0 0 464.1 342.2"
	 style="enable-background:new 0 0 464.1 342.2;" xml:space="preserve">
<style type="text/css">
	.st0{clip-path:url(#SVGID_00000023241929251090236690000014605757771698170024_);}
	.st1{fill:url(#SVGID_00000108283149472435221390000008241974728617889166_);}
	.st2{fill:url(#SVGID_00000181056487287522815540000015134427273700670644_);}
	.st3{fill:url(#SVGID_00000042708716803313892670000006152505579571740089_);}
	.st4{fill:url(#SVGID_00000172433051233493266280000005731007313086040743_);}
	.st5{fill:#3086FF;}
	.st6{fill:url(#SVGID_00000139295140864302323300000014521495237921765771_);}
	.st7{fill:url(#SVGID_00000019646233845463956520000012337329573643602366_);}
	.st8{fill:url(#SVGID_00000044151877022075673400000017530815905775312283_);}
	.st9{opacity:0.5;fill:url(#SVGID_00000103258467368218867890000016711653897966392490_);enable-background:new    ;}
</style>
<g transform="matrix(0.957922,0,0,0.985255,-90.17436,-78.85577)">
	<g>
		<defs>
			<path id="SVGID_1_" d="M473.6,227.9H339.3v53.4h77.2c-1.2,7.6-4,15-8.1,21.8c-4.7,7.8-10.5,13.7-16.4,18.2
				c-17.7,13.5-38.4,16.3-52.8,16.3c-36.3,0-67.3-23.3-79.3-54.9c-0.5-1.1-0.8-2.3-1.2-3.5c-2.7-8.1-4.1-16.6-4.1-25.4
				c0-9.2,1.6-18.1,4.4-26.4c11.3-32.9,43-57.5,80.2-57.5c7.5,0,14.7,0.9,21.5,2.6c15.6,4,26.7,12,33.4,18.2l40.8-39.7
				c-24.8-22.6-57.2-36.3-95.8-36.3c-30.9,0-59.4,9.6-82.7,25.7c-18.9,13.1-34.5,30.6-45,51c-9.8,18.9-15.1,39.8-15.1,62.3
				c0,22.5,5.3,43.6,15.1,62.3v0.1c10.3,19.9,25.4,37,43.7,50c16,11.4,44.7,26.6,84,26.6c22.6,0,42.7-4.1,60.4-11.6
				c12.8-5.5,24.1-12.6,34.3-21.8c13.5-12.1,24.1-27.1,31.3-44.4c7.2-17.3,11.1-36.8,11.1-58C476.3,247,475.3,237,473.6,227.9
				L473.6,227.9z"/>
		</defs>
		<clipPath id="SVGID_00000015342123585300877450000010844354324140864424_">
			<use xlink:href="#SVGID_1_"  style="overflow:visible;"/>
		</clipPath>
		<g style="clip-path:url(#SVGID_00000015342123585300877450000010844354324140864424_);">
			
				<radialGradient id="SVGID_00000113328705821523104670000003830480174186817686_" cx="-34.2381" cy="307.3502" r="71.46" gradientTransform="matrix(-7.797676e-02 -1.8557 -2.8836 0.1145 1185.3336 251.8182)" gradientUnits="userSpaceOnUse">
				<stop  offset="0.1416" style="stop-color:#1ABD4D"/>
				<stop  offset="0.2475" style="stop-color:#6EC30D"/>
				<stop  offset="0.3115" style="stop-color:#8AC502"/>
				<stop  offset="0.366" style="stop-color:#A2C600"/>
				<stop  offset="0.4457" style="stop-color:#C8C903"/>
				<stop  offset="0.5403" style="stop-color:#EBCB03"/>
				<stop  offset="0.6156" style="stop-color:#F7CD07"/>
				<stop  offset="0.6993" style="stop-color:#FDCD04"/>
				<stop  offset="0.7712" style="stop-color:#FDCE05"/>
				<stop  offset="0.8606" style="stop-color:#FFCE0A"/>
			</radialGradient>
			<path style="fill:url(#SVGID_00000113328705821523104670000003830480174186817686_);" d="M194.3,254.6c0.1,22.1,6.5,45,16.1,63.4
				v0.1c6.9,13.4,16.4,24,27.3,34.5L303,329c-12.4-6.2-14.2-10.1-23.1-17c-9.1-9.1-15.8-19.5-20-31.7h-0.2l0.2-0.1
				c-2.8-8.1-3-16.6-3.1-25.5L194.3,254.6z"/>
			
				<radialGradient id="SVGID_00000065073725876165985330000006295141905475319711_" cx="366.1861" cy="373.1439" r="47.8545" gradientTransform="matrix(1.9775 0 0 -2.5538 -291.9484 1141.762)" gradientUnits="userSpaceOnUse">
				<stop  offset="0.4085" style="stop-color:#FB4E5A"/>
				<stop  offset="1" style="stop-color:#FF4540"/>
			</radialGradient>
			<path style="fill:url(#SVGID_00000065073725876165985330000006295141905475319711_);" d="M339.3,113.7c-6.5,22.5-4,44.4,0,57.2
				c7.5,0,14.6,0.9,21.4,2.6c15.6,4,26.7,12,33.4,18.2l41.9-40.7C411.3,128.4,381.4,113.7,339.3,113.7z"/>
			
				<radialGradient id="SVGID_00000062874747221892693390000000675604448407201196_" cx="-72.7096" cy="320.3875" r="71.46" gradientTransform="matrix(-1.8554 0.9991 -1.4343 -2.5177 702.848 974.8719)" gradientUnits="userSpaceOnUse">
				<stop  offset="0.2313" style="stop-color:#FF4541"/>
				<stop  offset="0.3115" style="stop-color:#FF4540"/>
				<stop  offset="0.4575" style="stop-color:#FF4640"/>
				<stop  offset="0.5403" style="stop-color:#FF473F"/>
				<stop  offset="0.6993" style="stop-color:#FF5138"/>
				<stop  offset="0.7712" style="stop-color:#FF5B33"/>
				<stop  offset="0.8606" style="stop-color:#FF6C29"/>
				<stop  offset="1" style="stop-color:#FF8C18"/>
			</radialGradient>
			<path style="fill:url(#SVGID_00000062874747221892693390000000675604448407201196_);" d="M339.2,113.5
				c-31.7,0-60.9,9.8-84.9,26.4c-8.9,6.1-17.1,13.3-24.3,21.2c-1.9,17.7,14.3,39.6,46.3,39.4c15.5-17.9,38.5-29.5,64.1-29.5
				c0,0,0,0,0.1,0l-1-57.3C339.3,113.5,339.3,113.5,339.2,113.5z"/>
			
				<radialGradient id="SVGID_00000026145924256677997760000001829928817763207552_" cx="-111.6974" cy="337.5279" r="71.46" gradientTransform="matrix(-3.3648 -4.2705 1.6676 -1.242 -597.2935 318.7411)" gradientUnits="userSpaceOnUse">
				<stop  offset="0.1315" style="stop-color:#0CBA65"/>
				<stop  offset="0.2098" style="stop-color:#0BB86D"/>
				<stop  offset="0.2973" style="stop-color:#09B479"/>
				<stop  offset="0.3963" style="stop-color:#08AD93"/>
				<stop  offset="0.4771" style="stop-color:#0AA6A9"/>
				<stop  offset="0.5684" style="stop-color:#0D9CC6"/>
				<stop  offset="0.6674" style="stop-color:#1893DD"/>
				<stop  offset="0.7687" style="stop-color:#258BF1"/>
				<stop  offset="0.8585" style="stop-color:#3086FF"/>
			</radialGradient>
			<path style="fill:url(#SVGID_00000026145924256677997760000001829928817763207552_);" d="M443.7,261.1l-28.3,19.3
				c-1.2,7.6-4,15-8.1,21.8c-4.7,7.8-10.5,13.7-16.4,18.2c-17.7,13.5-38.3,16.2-52.7,16.3c-14.8,25.1-17.4,37.7,1,57.9
				c22.9,0,43.2-4.1,61-11.8c12.9-5.6,24.4-12.8,34.8-22.1c13.7-12.3,24.4-27.5,31.8-45c7.3-17.5,11.2-37.3,11.2-58.7L443.7,261.1z"
				/>
			<path class="st5" d="M337.3,225.9v57.5h136c1.2-7.9,5.2-18.1,5.2-26.5c0-9.9-1-21.9-2.7-31H337.3z"/>
			
				<radialGradient id="SVGID_00000080178204048781016030000012570464184433452701_" cx="150.4334" cy="269.1726" r="71.46" gradientTransform="matrix(-0.2381 1.9955 -2.9188 -0.3292 1148.5621 -71.7819)" gradientUnits="userSpaceOnUse">
				<stop  offset="0.366" style="stop-color:#FF4E3A"/>
				<stop  offset="0.4575" style="stop-color:#FF8A1B"/>
				<stop  offset="0.5403" style="stop-color:#FFA312"/>
				<stop  offset="0.6156" style="stop-color:#FFB60C"/>
				<stop  offset="0.7712" style="stop-color:#FFCD0A"/>
				<stop  offset="0.8606" style="stop-color:#FECF0A"/>
				<stop  offset="0.915" style="stop-color:#FECF08"/>
				<stop  offset="1" style="stop-color:#FDCD01"/>
			</radialGradient>
			<path style="fill:url(#SVGID_00000080178204048781016030000012570464184433452701_);" d="M230.7,159
				c-8.4,9.1-15.6,19.3-21.2,30.4c-9.8,18.9-15.1,41.8-15.1,64.3c0,0.3,0,0.6,0,0.9c4.3,8.2,59.7,6.6,62.5,0c0-0.3,0-0.6,0-0.9
				c0-9.2,1.6-16,4.4-24.4c3.5-10.3,9.1-19.8,16.1-27.9c1.6-2,5.9-6.4,7.1-9c0.5-1-0.9-1.6-0.9-1.9c-0.1-0.4-1.9-0.1-2.3-0.4
				c-1.3-0.9-3.8-1.4-5.3-1.8c-3.3-0.9-8.7-3-11.7-5.1C254.6,176.6,239.7,168.6,230.7,159L230.7,159z"/>
			
				<radialGradient id="SVGID_00000118369313246669552840000017007001745863863184_" cx="71.8409" cy="511.2198" r="41.1025" gradientTransform="matrix(-1.1966 1.2867 3.8394 3.3752 -1574.6991 -1679.661)" gradientUnits="userSpaceOnUse">
				<stop  offset="0.3159" style="stop-color:#FF4C3C"/>
				<stop  offset="0.6038" style="stop-color:#FF692C"/>
				<stop  offset="0.7268" style="stop-color:#FF7825"/>
				<stop  offset="0.8845" style="stop-color:#FF8D1B"/>
				<stop  offset="1" style="stop-color:#FF9F13"/>
			</radialGradient>
			<path style="fill:url(#SVGID_00000118369313246669552840000017007001745863863184_);" d="M264.4,190.5
				c22.1,13.3,28.5-6.7,43.2-13L282,124.9c-9.4,3.9-18.3,8.8-26.5,14.5c-12.3,8.5-23.2,18.9-32.2,30.7L264.4,190.5z"/>
			
				<radialGradient id="SVGID_00000049939321627938436700000000417669235654414250_" cx="-149.0211" cy="419.105" r="71.46" gradientTransform="matrix(-1.8554 -0.9991 -1.4343 2.5177 702.848 -792.2472)" gradientUnits="userSpaceOnUse">
				<stop  offset="0.2313" style="stop-color:#0FBC5F"/>
				<stop  offset="0.3115" style="stop-color:#0FBC5F"/>
				<stop  offset="0.366" style="stop-color:#0FBC5E"/>
				<stop  offset="0.4575" style="stop-color:#0FBC5D"/>
				<stop  offset="0.5403" style="stop-color:#12BC58"/>
				<stop  offset="0.6993" style="stop-color:#28BF3C"/>
				<stop  offset="0.7712" style="stop-color:#38C02B"/>
				<stop  offset="0.8606" style="stop-color:#52C218"/>
				<stop  offset="0.915" style="stop-color:#67C30F"/>
				<stop  offset="1" style="stop-color:#86C504"/>
			</radialGradient>
			<path style="fill:url(#SVGID_00000049939321627938436700000000417669235654414250_);" d="M273.4,324.9
				c-29.7,10.6-34.3,11-37.1,29.3c5.2,5.1,10.8,9.7,16.8,14c16,11.4,46.8,26.6,86.1,26.6c0,0,0.1,0,0.1,0v-59.2c0,0-0.1,0-0.1,0
				c-14.7,0-26.5-3.8-38.6-10.5c-3-1.6-8.4,2.8-11.1,0.8C285.8,323.1,276.6,328.2,273.4,324.9L273.4,324.9z"/>
			
				<linearGradient id="SVGID_00000030484077259909663700000012295163964399299982_" gradientUnits="userSpaceOnUse" x1="438.8624" y1="57.216" x2="473.63" y2="57.216" gradientTransform="matrix(0.9579 0 0 -0.9853 -98.4343 420.5895)">
				<stop  offset="0" style="stop-color:#0FBC5C"/>
				<stop  offset="1" style="stop-color:#0CBA65"/>
			</linearGradient>
			<path style="opacity:0.5;fill:url(#SVGID_00000030484077259909663700000012295163964399299982_);enable-background:new    ;" d="
				M322,333.7v60c5.5,0.6,11.2,1,17.2,1c6,0,11.9-0.3,17.5-0.9v-59.7c-6.3,1.1-12.3,1.5-17.5,1.5C333.3,335.6,327.6,334.9,322,333.7
				z"/>
		</g>
	</g>
</g>
</svg>
