<?xml version="1.0" encoding="UTF-8"?>
<svg id="katman_1" xmlns="http://www.w3.org/2000/svg" version="1.1" xmlns:xlink="http://www.w3.org/1999/xlink" viewBox="0 0 841.9 595.3">
  <!-- Generator: Adobe Illustrator 29.1.0, SVG Export Plug-In . SVG Version: 2.1.0 Build 142)  -->
  <defs>
    <style>
      .st0 {
        fill: url(#Adsız_degrade_6);
      }

      .st1 {
        fill: url(#Adsız_degrade_3);
      }

      .st2 {
        fill: url(#Adsız_degrade_4);
      }

      .st3 {
        fill: #fff;
        fill-rule: evenodd;
      }

      .st4 {
        fill: none;
      }

      .st5 {
        clip-path: url(#clippath-1);
      }

      .st6 {
        fill: url(#Adsız_degrade_7);
      }

      .st7 {
        fill: url(#Adsız_degrade_5);
      }

      .st8 {
        fill: url(#Adsız_degrade_2);
      }

      .st9 {
        clip-path: url(#clippath);
      }
    </style>
    <clipPath id="clippath">
      <rect class="st4" x="164" y="40.9" width="513.8" height="513.8"/>
    </clipPath>
    <clipPath id="clippath-1">
      <rect class="st4" x="164" y="40.9" width="513.8" height="513.8"/>
    </clipPath>
    <radialGradient id="Adsız_degrade_7" data-name="Adsız degrade 7" cx="-17.5" cy="586.3" fx="-17.5" fy="586.3" r="7.1" gradientTransform="translate(11970.8 -10027.4) rotate(-130.3) scale(27.6 -26.2)" gradientUnits="userSpaceOnUse">
      <stop offset="0" stop-color="#00aeff"/>
      <stop offset=".8" stop-color="#2253ce"/>
      <stop offset="1" stop-color="#0736c4"/>
    </radialGradient>
    <radialGradient id="Adsız_degrade_2" data-name="Adsız degrade 2" cx="18.2" cy="594.9" fx="18.2" fy="594.9" r="7.1" gradientTransform="translate(-11251.8 9389) rotate(50.3) scale(25 -24.6)" gradientUnits="userSpaceOnUse">
      <stop offset="0" stop-color="#ffb657"/>
      <stop offset=".6" stop-color="#ff5f3d"/>
      <stop offset=".9" stop-color="#c02b3c"/>
    </radialGradient>
    <linearGradient id="Adsız_degrade_3" data-name="Adsız degrade 3" x1="316.4" y1="486.3" x2="341.9" y2="184.5" gradientTransform="translate(0 596.7) scale(1 -1)" gradientUnits="userSpaceOnUse">
      <stop offset=".2" stop-color="#0d91e1"/>
      <stop offset=".5" stop-color="#52b471"/>
      <stop offset=".7" stop-color="#98bd42"/>
      <stop offset=".9" stop-color="#ffc800"/>
    </linearGradient>
    <linearGradient id="Adsız_degrade_4" data-name="Adsız degrade 4" x1="319" y1="524.1" x2="332.9" y2="194.9" gradientTransform="translate(0 596.7) scale(1 -1)" gradientUnits="userSpaceOnUse">
      <stop offset="0" stop-color="#3dcbff"/>
      <stop offset=".2" stop-color="#0588f7" stop-opacity="0"/>
    </linearGradient>
    <radialGradient id="Adsız_degrade_5" data-name="Adsız degrade 5" cx=".1" cy="603.6" fx=".1" fy="603.6" r="7.1" gradientTransform="translate(-42021.6 -15134.8) rotate(109.7) scale(61.5 -75.1)" gradientUnits="userSpaceOnUse">
      <stop offset="0" stop-color="#8c48ff"/>
      <stop offset=".5" stop-color="#f2598a"/>
      <stop offset=".9" stop-color="#ffb152"/>
    </radialGradient>
    <linearGradient id="Adsız_degrade_6" data-name="Adsız degrade 6" x1="517.7" y1="423.6" x2="517.5" y2="333.9" gradientTransform="translate(0 596.7) scale(1 -1)" gradientUnits="userSpaceOnUse">
      <stop offset="0" stop-color="#f8adfa"/>
      <stop offset=".7" stop-color="#a86edd" stop-opacity="0"/>
    </linearGradient>
  </defs>
  <g class="st9">
    <g class="st5">
      <g>
        <path class="st6" d="M539.8,110.4c-7-22.2-27.7-37.4-51-37.4h-17.6c-25.8,0-47.9,18.4-52.6,43.7l-26.2,140.7,7.9-26c6.8-22.6,27.6-38,51.2-38h81.9l47,16.4,25-16.4c-23.3,0-44-15.2-51-37.5l-14.5-45.7Z"/>
        <path class="st8" d="M307.6,485c7,22.4,27.7,37.6,51.1,37.6h34.7c29.3,0,53.1-23.5,53.5-52.8l1.8-129.2-7,23.5c-6.8,22.6-27.6,38.1-51.3,38.1h-81.9l-42.4-19.3-23.8,19.3c23.4,0,44.1,15.2,51.1,37.6l14.1,45.2Z"/>
        <path class="st1" d="M485.2,73h-187.3c-53.5,0-85.6,69-107,138-25.4,81.8-58.6,191.1,37.5,191.1h81.6c23.8,0,44.7-15.7,51.4-38.5,14.1-48,38.7-131.6,58-195.3,9.8-32.4,18-60.2,30.6-77.5,7.1-9.7,18.8-17.8,35.3-17.8Z"/>
        <path class="st2" d="M485.2,73h-187.3c-53.5,0-85.6,69-107,138-25.4,81.8-58.6,191.1,37.5,191.1h81.6c23.8,0,44.7-15.7,51.4-38.5,14.1-48,38.7-131.6,58-195.3,9.8-32.4,18-60.2,30.6-77.5,7.1-9.7,18.8-17.8,35.3-17.8Z"/>
        <path class="st7" d="M356.7,522.6h187.3c53.5,0,85.6-69,107-138,25.4-81.8,58.6-191.1-37.5-191.1h-81.6c-23.8,0-44.7,15.7-51.4,38.5-14.1,48-38.7,131.6-58,195.3-9.8,32.4-18,60.2-30.6,77.5-7.1,9.7-18.8,17.8-35.3,17.8Z"/>
        <path class="st0" d="M356.7,522.6h187.3c53.5,0,85.6-69,107-138,25.4-81.8,58.6-191.1-37.5-191.1h-81.6c-23.8,0-44.7,15.7-51.4,38.5-14.1,48-38.7,131.6-58,195.3-9.8,32.4-18,60.2-30.6,77.5-7.1,9.7-18.8,17.8-35.3,17.8Z"/>
        <rect x="332.6" y="402.2" width="345.2" height="152.5" rx="3.6" ry="3.6"/>
        <path class="st3" d="M353.6,431.3v93h17.2v-67l18.9,37.2h11.5l18.4-37.2v67h17.8v-93h-19.8l-21.5,43.1-21.4-43.1h-20.9ZM482.2,525.5c-10.2,0-18.2-2.4-23.9-7.3-5.7-4.9-8.5-12.2-8.5-22h17c0,4.7,1.3,8.3,4,10.9,2.7,2.6,6.5,3.9,11.3,3.9s7.6-1.1,9.9-3.3c2.3-2.2,3.5-5.7,3.5-10.5s-1.4-7.9-4.3-10c-2.8-2.1-6.5-3.2-11-3.2h-5.6v-14h6.1c4.1,0,7.3-1.1,9.7-3.3,2.4-2.2,3.6-5.1,3.6-8.8s-1.1-6.4-3.2-8.2c-2.1-1.8-5-2.6-8.8-2.6s-7.3,1.2-9.5,3.5c-2.3,2.3-3.4,5.4-3.4,9.3h-16.9c0-6.2,1.3-11.3,3.9-15.3,2.6-4,6.2-7,10.7-9,4.5-2,9.6-3,15.2-3s10,.9,14.4,2.6c4.4,1.7,8,4.3,10.6,7.8,2.7,3.5,4.1,8,4.1,13.5s-1.3,10-4,13.3c-2.6,3.3-6.2,5.6-10.6,6.9,4.9,1,9,3.3,12.2,6.9,3.3,3.5,4.9,8.5,4.9,15s-2.8,15.5-8.5,20.1c-5.6,4.6-13.3,6.9-22.9,6.9ZM537.8,520.9c5.1,3.1,10.9,4.6,17.4,4.6s12.1-1.3,16.6-3.9c4.6-2.6,8-6.1,10.4-10.6,2.3-4.6,3.5-9.8,3.5-15.7s-1.2-11.3-3.5-15.4c-2.3-4.2-5.4-7.3-9.4-9.5-3.9-2.2-8.3-3.2-13.3-3.2s-7.8.7-10.9,2c-3.1,1.3-5.8,3.1-8.2,5.3-.3.3-.6.6-.9.9.3-8.9,1.6-15.7,4-20.3,2.8-5.3,6.7-8,11.7-8s5.7.9,7.6,2.6c2,1.7,3.3,4.3,4,7.8h17c-1.2-8-4.2-14.2-9.1-18.4-4.9-4.3-11.4-6.5-19.5-6.5s-12.4,1.7-17.5,5c-5.1,3.3-9.1,8.5-12,15.4-2.9,6.9-4.4,15.8-4.4,26.6s1.5,19.7,4.4,26.5c2.9,6.7,7,11.7,12,14.8ZM539.6,488.7c1.2-1.2,2.6-2.3,4.1-3.3,3.7-2.5,7.9-3.8,12.6-3.8s6.3,1.2,8.3,3.7c2,2.4,3,5.8,3,10.2s-1,8.2-3.1,11.1c-2,2.9-5.1,4.4-9.3,4.4s-5.2-.9-7.7-2.6c-2.4-1.8-4.4-4.6-5.9-8.5-1.1-3-1.8-6.8-2.1-11.4ZM609.4,522.5c4.8,2,10.2,3,16.2,3s11.2-1.2,15.9-3.5c4.7-2.3,8.5-5.8,11.3-10.5,2.8-4.7,4.1-10.6,4.1-17.6s-1.3-12.7-3.9-17.1c-2.6-4.3-6-7.5-10.2-9.5-4.2-2-8.7-3-13.5-3s-6.9.6-9.6,1.8c-2.7,1.2-4.7,2.5-6.1,4.1l1.7-21.3h34.6v-15.1h-48.9l-3.9,50.1h15.8c1.3-1.6,2.9-2.9,4.9-4,2-1.1,4.4-1.6,7.3-1.6,4.1,0,7.3,1.2,9.9,3.7,2.6,2.4,3.9,6.4,3.9,11.9s-1.2,10.3-3.7,13.1c-2.4,2.8-5.6,4.1-9.5,4.1s-7.6-1.2-10.3-3.5c-2.7-2.4-4-5.7-4-9.8h-17.6c0,6.2,1.4,11.4,4.2,15.5,2.9,4.1,6.7,7.2,11.5,9.2Z"/>
      </g>
    </g>
  </g>
</svg>