<?xml version="1.0" encoding="UTF-8"?>
<svg id="katman_1" xmlns="http://www.w3.org/2000/svg" version="1.1" xmlns:xlink="http://www.w3.org/1999/xlink" viewBox="0 0 721 721">
  <!-- Generator: Adobe Illustrator 29.2.1, SVG Export Plug-In . SVG Version: 2.1.0 Build 116)  -->
  <defs>
    <style>
      .st0 {
        fill: none;
      }

      .st1 {
        clip-path: url(#clippath-1);
      }

      .st2 {
        clip-path: url(#clippath);
      }
    </style>
    <clipPath id="clippath">
      <rect class="st0" x=".6" y="0" width="720" height="720"/>
    </clipPath>
    <clipPath id="clippath-1">
      <rect class="st0" x="118.6" y="120" width="484.1" height="479.8"/>
    </clipPath>
  </defs>
  <g class="st2">
    <g class="st1">
      <path d="M304.2,294.6v-45.6c0-3.8,1.4-6.7,4.8-8.6l91.6-52.8c12.5-7.2,27.4-10.6,42.7-10.6,57.6,0,94,44.6,94,92.1s0,7.2-.5,11l-95-55.7c-5.8-3.4-11.5-3.4-17.3,0l-120.4,70.1ZM518.2,472.1v-108.9c0-6.7-2.9-11.5-8.6-14.9l-120.4-70.1,39.3-22.6c3.4-1.9,6.2-1.9,9.6,0l91.6,52.8c26.4,15.4,44.1,48,44.1,79.6s-21.6,70.1-55.7,84h0ZM275.9,376.2l-39.3-23c-3.4-1.9-4.8-4.8-4.8-8.6v-105.6c0-51.3,39.3-90.2,92.6-90.2s38.9,6.7,54.7,18.7l-94.5,54.7c-5.8,3.4-8.6,8.2-8.6,14.9v139.1h0ZM360.6,425.1l-56.4-31.7v-67.2l56.4-31.7,56.4,31.7v67.2l-56.4,31.7ZM396.9,571c-20.2,0-38.9-6.7-54.7-18.7l94.5-54.7c5.8-3.4,8.6-8.2,8.6-14.9v-139.1l39.8,23c3.4,1.9,4.8,4.8,4.8,8.6v105.6c0,51.3-39.8,90.2-93.1,90.2h0ZM283.1,464l-91.6-52.8c-26.4-15.4-44.1-48-44.1-79.6s22.1-70.1,56.1-84v109.4c0,6.7,2.9,11.5,8.6,14.9l120,69.6-39.3,22.6c-3.4,1.9-6.2,1.9-9.6,0ZM277.9,542.7c-54.2,0-94-40.8-94-91.2s.5-7.7,1-11.5l94.5,54.7c5.8,3.4,11.5,3.4,17.3,0l120.4-69.6v45.6c0,3.8-1.4,6.7-4.8,8.6l-91.6,52.8c-12.5,7.2-27.4,10.6-42.7,10.6h0ZM396.9,599.8c58.1,0,106.5-41.3,117.6-96,53.7-13.9,88.3-64.3,88.3-115.6s-14.4-66.2-40.3-89.7c2.4-10.1,3.8-20.2,3.8-30.2,0-68.6-55.7-120-120-120s-25.4,1.9-37.9,6.2c-21.6-21.1-51.3-34.5-84-34.5-58.1,0-106.5,41.3-117.6,96-53.7,13.9-88.3,64.3-88.3,115.6s14.4,66.2,40.3,89.7c-2.4,10.1-3.8,20.2-3.8,30.2,0,68.6,55.7,120,120,120s25.4-1.9,37.9-6.2c21.6,21.1,51.3,34.5,84,34.5Z"/>
    </g>
  </g>
</svg>